<?xml version="1.0"?>
<svg viewBox="0 0 340.000000 250.000000" xmlns="http://www.w3.org/2000/svg" xmlns:svg="http://www.w3.org/2000/svg" preserveAspectRatio="xMidYMid meet" version="1.0">

 <g class="layer">
  <title>Layer 1</title>
  <g id="svg_12">
   <path d="m160.13,93.14a88.85,88.85 0 1 1 0,73.3" fill-opacity="0" id="svg_3" stroke="#feffff" stroke-width="3"/>
   <g id="svg_4" transform="matrix(1.23298, 0, 0, 1.23298, -0.522821, 52.4419)">
    <g id="svg_5">
     <rect class="i-icon-bg" data-gra="graph-name-bg" fill-opacity="0" height="59.46" id="svg_6" stroke-width="2" width="248.25" x="6.17" y="33"/>
     <!---->
     <!---->
    </g>
    <g id="svg_7" transform="translate(10, 3)">
     <g class="tp-name" data-gra="path-name" id="svg_8">
      <g id="svg_9" transform="translate(39.0832, 52.9367) scale(1)">
       <g id="svg_10">
        <path d="m6.53,-9.92l0,0q-0.56,0 -1.1,-0.05q-0.55,-0.06 -1.16,-0.17l0,0q-3.74,-0.72 -6.77,-2.47q-3.02,-1.77 -5.41,-4.1q-2.39,-2.34 -4.35,-4.93q-1.95,-2.58 -3.54,-4.97q-1.6,-2.39 -2.98,-4.21l0,0q-0.1,-0.28 -0.24,-0.16q-0.14,0.1 -0.14,0.1l0,0q-1.21,2.32 -2.23,4.32q-1.01,2.01 -1.51,3.22l0,0q-0.44,1.21 -0.44,1.7l0,0q0,0.77 0.61,0.77l0,0q0.77,0 1.64,-1.04l0,0q0.61,-0.71 1.13,-1.35q0.52,-0.63 0.91,-0.52l0,0q0.06,0.06 0.06,0.16l0,0q0,0.28 -0.39,0.75q-0.39,0.46 -0.44,0.52l0,0q-0.38,0.55 -1.02,1.48q-0.63,0.94 -1.32,1.68q-0.69,0.75 -1.46,0.75l0,0q-0.1,0 -0.63,-0.11q-0.52,-0.12 -0.99,-0.28q-0.46,-0.16 -0.52,-0.39l0,0q-0.11,-1.04 0.52,-2.94q0.63,-1.9 1.73,-4.2q1.11,-2.31 2.26,-4.52l0,0q-0.88,-0.22 -1.27,-0.38l0,0q-0.54,-0.38 -0.54,-1.05l0,0q0,-0.55 0.44,-0.99q0.43,-0.43 1.32,-0.43l0,0q0.27,0 0.66,0.1q0.38,0.11 0.6,0.39l0,0q0.93,-1.65 1.68,-3.03q0.74,-1.37 1.07,-2.14l0,0q0.33,-0.61 0.44,-1.02q0.11,-0.41 0.11,-0.63l0,0q0,-0.33 -0.11,-0.55l0,0q0.11,-0.66 0.8,-1.76q0.69,-1.1 1.73,-2.2q1.05,-1.1 2.25,-1.84q1.21,-0.75 2.26,-0.75l0,0q0.33,0 1.02,0.2q0.68,0.19 1.32,0.57q0.63,0.39 0.79,1.1l0,0q0.06,0.17 0.06,0.34l0,0q0,0.16 -0.11,0.16l0,0q-0.11,0 -0.3,-0.08q-0.2,-0.08 -0.31,-0.08l0,0q-1.53,0 -3.43,1.84q-1.9,1.84 -3.85,4.7q-1.95,2.86 -3.66,5.94l0,0q0.27,0.06 0.63,0.14q0.36,0.08 0.85,0.08l0,0q0.23,0 0.42,0q0.19,0 0.41,-0.06l0,0q3.52,-0.38 7.18,-1.37q3.65,-0.99 6.84,-2.59q3.2,-1.59 5.28,-3.73l0,0q1.93,-2.04 1.93,-4.18l0,0q0,-1.6 -1.21,-2.98q-1.21,-1.37 -3.8,-2.09l0,0q-1.53,-0.43 -3.49,-0.66q-1.95,-0.22 -4.21,-0.22l0,0q-3.51,0 -7.23,0.61q-3.71,0.61 -6.95,1.84q-3.25,1.24 -5.45,3.11q-2.2,1.87 -2.64,4.46l0,0q-0.17,1.32 0.5,2.09q0.65,0.77 1.62,1.18q0.96,0.41 1.51,0.74l0,0q0.39,0.33 0.39,0.55l0,0q0,0.39 -0.72,0.27l0,0q-0.77,-0.16 -1.9,-0.76q-1.13,-0.61 -1.98,-1.68q-0.85,-1.07 -0.85,-2.51l0,0q0,-0.22 0.03,-0.43q0.02,-0.23 0.08,-0.45l0,0q0,-0.05 -0.03,-0.35q-0.03,-0.31 -0.03,-0.52l0,0q0.34,-1.71 1.68,-3.22q1.35,-1.52 3.08,-2.7q1.73,-1.18 3.22,-1.89l0,0q2.59,-1.27 6.21,-2.01q3.64,-0.75 7.59,-0.75l0,0q2.43,0 4.82,0.33q2.39,0.33 4.64,1.05l0,0q3.14,1.04 4.87,3.22q1.74,2.17 1.57,4.54l0,0q-0.16,2.25 -1.57,4.07q-1.4,1.81 -3.57,3.16q-2.18,1.35 -4.79,2.31q-2.61,0.96 -5.25,1.56l0,0q-2.15,0.44 -4.51,0.72q-2.37,0.28 -4.45,0.38l0,0q2.36,2.92 4.7,5.86q2.34,2.94 5,5.53q2.67,2.58 5.86,4.43q3.19,1.84 7.21,2.61l0,0q0.82,0.17 1.7,0.17l0,0q1.43,0 2.83,-0.44q1.4,-0.45 2.34,-1.38q0.93,-0.93 0.93,-2.48l0,0q0,-0.27 -0.02,-0.54q-0.03,-0.28 -0.09,-0.55l0,0q0,-0.12 -0.02,-0.17q-0.03,-0.05 -0.03,-0.11l0,0q0,-0.49 0.39,-0.49l0,0q0.55,0 0.71,0.82l0,0q0.16,0.83 0.16,1.54l0,0q0,0.82 -0.13,1.54q-0.14,0.72 -0.36,1.32l0,0q-0.49,1.54 -2.5,2.58q-2.01,1.05 -4.59,1.05zm-2.64,-9.19l0,0q-2.48,0 -4.29,-1.15q-1.82,-1.16 -1.82,-3.52l0,0q0,-1.27 0.77,-3.08l0,0q0.55,-1.27 2.03,-2.92q1.49,-1.64 3.47,-3.21q1.98,-1.57 4.02,-2.59q2.03,-1.01 3.68,-1.01l0,0q0.61,0 1.1,0.16l0,0q0.94,0.33 1.29,1.04q0.36,0.72 0.36,1.49l0,0q0,0.71 -0.22,1.37q-0.22,0.66 -0.55,1.16l0,0q-0.99,1.48 -2.83,2.64q-1.84,1.15 -3.74,1.81q-1.9,0.66 -3.11,0.78l0,0l-0.11,0q-0.72,0 -0.72,-0.45l0,0q0,-0.27 0.45,-0.27l0,0q1.31,-0.11 3.32,-1.24q2.01,-1.12 3.55,-2.34l0,0q0.66,-0.54 1.57,-1.53q0.9,-1 0.9,-1.93l0,0q0,-0.99 -0.93,-0.99l0,0q-0.5,0 -1.02,0.22q-0.52,0.22 -0.85,0.33l0,0q-1.6,0.77 -3.52,2.39q-1.93,1.63 -3.49,3.63q-1.57,2.01 -2.17,4.05l0,0q-0.17,0.44 -0.22,0.85q-0.06,0.41 -0.06,0.8l0,0q0,1.31 0.85,1.87q0.86,0.54 2.07,0.54l0,0q1.81,0 3.73,-0.79q1.93,-0.8 3.74,-2.07q1.82,-1.26 3.33,-2.72q1.51,-1.46 2.56,-2.83l0,0q0.17,-0.22 0.39,-0.25q0.22,-0.02 0.27,0.08l0,0q0.22,0.06 0.22,0.31q0,0.25 -0.11,0.46l0,0q-1.54,2.15 -3.71,4.19q-2.17,2.03 -4.79,3.38q-2.61,1.34 -5.41,1.34zm19.03,-0.22l0,0q-0.99,0.17 -1.98,0.17l0,0q-2.42,0 -4.02,-1.16q-1.59,-1.15 -1.59,-3.35l0,0q0,-1.32 0.77,-3.19l0,0q0.55,-1.27 2.03,-2.92q1.49,-1.64 3.47,-3.21q1.98,-1.57 4.01,-2.59q2.04,-1.01 3.69,-1.01l0,0q0.6,0 1.1,0.16l0,0q0.6,0.22 1.04,0.61q0.44,0.38 0.44,1.15l0,0q0,0.17 0,0.33q0,0.17 -0.11,0.38l0,0q0,0.17 -0.25,0.72q-0.24,0.55 -0.55,0.96q-0.3,0.41 -0.52,0.2l0,0q-0.22,-0.17 -0.22,-0.45l0,0q0,-0.27 0.14,-0.63q0.14,-0.36 0.14,-0.63l0,0q0,-0.38 -0.2,-0.74q-0.19,-0.36 -0.63,-0.36l0,0q-1.04,0 -2.69,0.93q-1.65,0.94 -3.39,2.51q-1.73,1.56 -3.1,3.43q-1.38,1.88 -1.93,3.75l0,0q-0.16,0.44 -0.22,0.85q-0.05,0.41 -0.05,0.8l0,0q0,1.2 0.79,1.73q0.8,0.52 1.96,0.52l0,0q1.26,0 2.58,-0.38l0,0q3.74,-1.11 6.08,-3.03q2.34,-1.93 4.7,-4.95l0,0q0.22,-0.27 0.39,-0.22q0.16,0.06 0.27,0.06l0,0q0.17,0.05 0.17,0.33l0,0q0,0.1 -0.06,0.27q-0.06,0.16 -0.11,0.27l0,0q-2.36,3.19 -5.22,5.59q-2.86,2.39 -6.93,3.1zm19.36,-19.74l0,0q-0.72,0 -1.49,-0.14q-0.77,-0.13 -0.77,-1.02l0,0q0,-0.16 0.74,-0.77q0.75,-0.6 1.54,-1.23q0.8,-0.63 0.96,-0.75l0,0q0.94,-0.77 1.16,-0.77l0,0q0.28,0 0,0.72q-0.27,0.71 -0.27,1.26l0,0q0,0.28 -0.34,0.94q-0.33,0.66 -0.77,1.21q-0.43,0.55 -0.76,0.55zm-6,19.69l0,0q-0.99,0 -1.79,-0.44q-0.79,-0.44 -1.18,-1.65l0,0q-0.05,-0.17 -0.08,-0.33q-0.03,-0.17 -0.03,-0.38l0,0q0,-1.1 0.5,-2.75q0.49,-1.66 1.2,-3.2l0,0q-0.33,0.45 -0.76,1.08q-0.44,0.63 -1.27,1.62l0,0q-0.22,0.22 -0.5,0.22l0,0q-0.38,0 -0.38,-0.44l0,0q0,-0.33 0.22,-0.55l0,0q1.43,-1.82 2.56,-3.25q1.13,-1.43 1.68,-2.42l0,0q0,-0.05 -0.03,-0.08q-0.03,-0.02 -0.03,-0.08l0,0q0,-0.17 0.17,-0.5l0,0q0.44,-1.32 0.9,-2.22q0.47,-0.91 1.02,-1.02l0,0q0.11,0 0.22,-0.03q0.11,-0.02 0.22,-0.02l0,0q0.61,0 1.1,0.27q0.49,0.27 0.49,0.83l0,0q0,0.49 -0.35,1.2q-0.36,0.72 -0.91,1.77l0,0q-1.21,2.53 -2.17,4.59q-0.96,2.06 -1.07,3.38l0,0q-0.06,0.22 -0.06,0.41q0,0.19 0,0.42l0,0q0,2.2 1.43,2.2l0,0q0.88,0 2.26,-0.97q1.37,-0.96 2.8,-2.36q1.43,-1.4 2.61,-2.7q1.18,-1.29 1.63,-1.95l0,0q0.16,-0.16 0.33,-0.16l0,0q0.22,0 0.35,0.16q0.14,0.17 0.03,0.44l0,0q-0.49,0.94 -1.68,2.34q-1.18,1.4 -2.64,2.8q-1.45,1.41 -2.83,2.4l0,0q-0.71,0.54 -1.79,0.96q-1.07,0.41 -2.17,0.41zm0.49,18.26l0,0q-0.66,0 -0.66,-0.55l0,0q0,-0.22 0.17,-0.6l0,0q0.66,-1.43 1.87,-4.27q1.21,-2.83 2.67,-6.49q1.45,-3.65 2.94,-7.5l0,0q1.32,-3.41 2.56,-6.66q1.23,-3.25 2.06,-5.86q0.82,-2.61 0.82,-4.04l0,0q0,-0.44 0.61,-0.52q0.6,-0.09 1.16,-0.09l0,0q1.81,0 1.81,1.22l0,0q0,0.99 -1.1,2.58l0,0q-0.99,1.59 -1.71,3.27q-0.71,1.68 -1.43,3.44l0,0q1.32,-1.76 2.48,-3.46q1.15,-1.71 2.7,-2.92l0,0q1.2,-0.93 2.39,-1.51q1.18,-0.58 2.55,-0.58l0,0q1.43,0 2.87,0.69q1.42,0.68 1.64,2.17l0,0q0.06,0.16 0.06,0.36q0,0.19 0,0.36l0,0q0,1.92 -1.13,3.76q-1.13,1.85 -2.67,3.27q-1.54,1.43 -2.86,2.31l0,0q-1.1,0.66 -2.66,1.43q-1.57,0.78 -3.3,1.32q-1.74,0.55 -3.33,0.55l0,0q-0.99,0 -1.65,-0.21l0,0q-0.72,1.65 -1.65,4.26q-0.94,2.61 -1.76,5.14l0,0q-0.39,1.1 -0.28,1.79q0.11,0.68 -0.27,1.73l0,0q-0.33,1.1 -0.72,2.12q-0.38,1.02 -0.88,1.95l0,0q-0.1,0.22 -0.68,0.61q-0.58,0.38 -1.32,0.66q-0.75,0.27 -1.3,0.27zm9.3,-19.41l0,0q1.76,0 3.68,-0.83q1.93,-0.82 3.8,-2.2q1.87,-1.37 3.38,-3q1.51,-1.62 2.45,-3.16l0,0q1.1,-1.76 1.1,-3.25l0,0q0,-1.7 -1.48,-1.7l0,0q-0.39,0 -0.94,0.14q-0.55,0.14 -1.27,0.52l0,0q-2.91,1.54 -4.78,3.6q-1.87,2.06 -3.19,4.54q-1.32,2.48 -2.75,5.34zm25.24,1.42l0,0q-2.47,0 -4.28,-1.15q-1.82,-1.16 -1.82,-3.52l0,0q0,-1.27 0.77,-3.08l0,0q0.55,-1.27 2.03,-2.92q1.49,-1.64 3.47,-3.21q1.98,-1.57 4.02,-2.59q2.03,-1.01 3.68,-1.01l0,0q0.6,0 1.1,0.16l0,0q0.94,0.33 1.29,1.04q0.36,0.72 0.36,1.49l0,0q0,0.71 -0.22,1.37q-0.22,0.66 -0.55,1.16l0,0q-0.99,1.48 -2.83,2.64q-1.85,1.15 -3.74,1.81q-1.9,0.66 -3.11,0.78l0,0l-0.11,0q-0.72,0 -0.72,-0.45l0,0q0,-0.27 0.44,-0.27l0,0q1.32,-0.11 3.33,-1.24q2.01,-1.12 3.55,-2.34l0,0q0.66,-0.54 1.57,-1.53q0.9,-1 0.9,-1.93l0,0q0,-0.99 -0.93,-0.99l0,0q-0.5,0 -1.02,0.22q-0.52,0.22 -0.85,0.33l0,0q-1.6,0.77 -3.52,2.39q-1.93,1.63 -3.49,3.63q-1.57,2.01 -2.18,4.05l0,0q-0.16,0.44 -0.22,0.85q-0.05,0.41 -0.05,0.8l0,0q0,1.31 0.85,1.87q0.86,0.54 2.06,0.54l0,0q1.82,0 3.74,-0.79q1.93,-0.8 3.74,-2.07q1.82,-1.26 3.33,-2.72q1.51,-1.46 2.56,-2.83l0,0q0.16,-0.22 0.38,-0.25q0.22,-0.02 0.28,0.08l0,0q0.22,0.06 0.22,0.31q0,0.25 -0.11,0.46l0,0q-1.54,2.15 -3.71,4.19q-2.18,2.03 -4.79,3.38q-2.61,1.34 -5.42,1.34zm13.15,1.93l0,0q-2.2,0 -2.2,-1.21l0,0q0,-0.88 0.94,-1.82l0,0q0.71,-0.71 1.59,-1.15q0.88,-0.44 1.1,-0.44l0,0q0.28,0 0.3,0.22q0.03,0.22 -0.24,0.33l0,0q-0.56,0.33 -1.24,0.91q-0.69,0.58 -0.69,1.23l0,0q0,0.89 1.04,0.89l0,0q1.27,0 2.64,-0.75q1.38,-0.74 2.56,-1.9q1.19,-1.15 1.93,-2.33q0.74,-1.19 0.74,-2.06l0,0q0,-0.72 -0.5,-1.33q-0.49,-0.6 -2.03,-1.43l0,0q-1.04,-0.6 -2.01,-1.26q-0.96,-0.66 -1.46,-1.6l0,0q-0.43,0.77 -1.12,1.85q-0.69,1.07 -1.63,2.22l0,0q-0.32,0.34 -0.65,0.34l0,0q-0.33,0 -0.33,-0.28l0,0q0,-0.17 0.27,-0.55l0,0q1.48,-1.76 2.2,-3.25q0.72,-1.48 0.99,-2.25l0,0q0.22,-1.59 1.48,-3.02q1.27,-1.43 3.08,-2.51q1.82,-1.07 3.72,-1.67q1.9,-0.61 3.38,-0.61l0,0q1.49,0 2.64,0.55q1.16,0.55 1.16,1.76l0,0q0,0.66 -0.39,1.43l0,0q-0.49,1.05 -1.65,1.87l0,0q-0.05,0.05 -0.17,0.05l0,0q-0.44,0 -0.44,-0.38l0,0q0,-0.28 0.28,-0.55l0,0q0.44,-0.39 0.72,-0.94q0.27,-0.54 0.27,-1.04l0,0q0,-0.99 -1.15,-0.99l0,0q-1.22,0 -3.17,0.66q-1.95,0.66 -3.6,1.71l0,0q-1.87,1.2 -3.14,2.63q-1.26,1.44 -1.26,2.54l0,0q0,0.54 0.36,1.01q0.36,0.47 1.4,1.08l0,0q0.55,0.33 1.54,0.85q0.99,0.52 1.7,0.96l0,0q2.26,1.37 2.26,2.91l0,0q0,1.27 -1.1,2.56q-1.1,1.3 -2.83,2.37q-1.74,1.07 -3.66,1.73q-1.92,0.66 -3.63,0.66zm36.52,-1.87l0,0q-0.22,0 -1.84,-0.22q-1.62,-0.22 -4.02,-0.69q-2.39,-0.46 -4.92,-1.1q-2.53,-0.63 -4.51,-1.45l0,0q-0.11,0.16 -0.94,0.87q-0.82,0.72 -1.78,1.41q-0.97,0.69 -1.51,0.69l0,0q-0.34,0 -0.34,-0.39l0,0q0,-2.75 1.66,-3.58q1.65,-0.82 4.01,-0.82l0,0q1.87,-1.1 4.48,-2.72q2.61,-1.62 5.36,-3.6q2.75,-1.99 5.12,-4.16q2.37,-2.17 3.82,-4.34q1.46,-2.17 1.46,-4.16l0,0q0,-2.19 -1.76,-3.43q-1.76,-1.24 -4.68,-1.24l0,0q-0.87,0 -1.89,0.14q-1.02,0.14 -2.01,0.41l0,0q-0.6,0.16 -1.87,0.61q-1.26,0.43 -2.67,1.15q-1.4,0.72 -2.36,1.57q-0.96,0.85 -0.96,1.84l0,0q0,0.33 0.19,0.66q0.19,0.33 0.19,0.66l0,0q0,0.49 -0.38,0.49l0,0q-0.45,0 -0.97,-0.87q-0.52,-0.88 -0.52,-1.6l0,0q0,-1.26 1.13,-2.37q1.12,-1.1 2.72,-1.95q1.59,-0.85 3.14,-1.4q1.54,-0.55 2.42,-0.72l0,0q1.15,-0.21 2.31,-0.35q1.15,-0.14 2.19,-0.14l0,0q4.13,0 6.83,1.6q2.69,1.59 2.69,4.39l0,0q0,2.15 -1.54,4.41q-1.54,2.25 -4.04,4.45q-2.51,2.2 -5.47,4.21q-2.97,2 -5.92,3.71q-2.94,1.7 -5.3,2.97l0,0q4.5,0.72 7.67,1.76q3.16,1.04 5.47,1.04l0,0q2.09,0 3.93,-0.43q1.84,-0.44 2.12,-1.49l0,0q0.28,-0.66 0.71,-0.66l0,0q0.39,0 0.39,0.5l0,0q0,1.04 -0.85,1.84q-0.85,0.8 -2.12,1.34q-1.26,0.56 -2.58,0.86q-1.33,0.3 -2.26,0.3zm24.53,19.47l0,0q-1.98,0 -3.16,-1.1q-1.19,-1.1 -1.19,-2.97l0,0q0,-1.49 0.83,-3.33q0.82,-1.84 2.64,-3.88l0,0q3.74,-4.28 8.33,-7.03q4.6,-2.75 9.88,-4.46l0,0q0.76,-2.09 1.43,-4.26q0.65,-2.18 1.32,-4.37l0,0q-2.7,2.52 -5.94,5.03q-3.25,2.5 -6.88,4.18q-3.63,1.67 -7.54,1.67l0,0q-2.86,0 -5.41,-1.07q-2.56,-1.07 -4.16,-3.27q-1.59,-2.2 -1.59,-5.67l0,0q0,-8.52 7.59,-15.34l0,0q4.4,-4.02 9.6,-5.8q5.2,-1.79 10.97,-1.79l0,0q0.66,0 1.9,0.14q1.24,0.13 2.55,0.55q1.32,0.41 2.32,1.15q0.98,0.75 1.15,1.9l0,0q0.06,0.22 0.06,0.39q0,0.16 0,0.32l0,0q0,0.66 -0.23,1q-0.21,0.32 -0.49,0.32l0,0q-0.55,0 -0.55,-0.87l0,0q-0.11,-1.49 -0.96,-2.29q-0.86,-0.8 -2.09,-1.07q-1.24,-0.27 -2.51,-0.27l0,0q-2.03,0 -4.86,0.85q-2.84,0.85 -5.97,2.36q-3.14,1.52 -6.19,3.58q-3.05,2.06 -5.52,4.51q-2.48,2.45 -3.97,5.14q-1.48,2.69 -1.48,5.44l0,0q0,3.8 2.5,5.48q2.51,1.67 6.36,1.67l0,0q3.73,0 7.91,-1.32l0,0q3.14,-0.93 5.4,-2.33q2.25,-1.41 4.28,-3.25q2.04,-1.84 4.35,-4.04l0,0q0.99,-2.53 2.59,-3.25q1.59,-0.71 2.97,-0.71l0,0q0.77,0 1.37,0.11q0.6,0.11 0.82,0.11l0,0q0.44,0.06 0.44,0.33l0,0q0,0.5 -0.66,0.39l0,0q-1.7,-0.12 -2.97,1.56q-1.26,1.68 -2.03,3.99l0,0q-0.72,1.93 -1.38,3.96q-0.66,2.04 -1.43,4.07l0,0q2.81,-0.77 4.18,-0.77l0,0q0.66,0 0.88,0.17l0,0q0.22,0.16 0.22,0.44l0,0q0,0.49 -0.38,0.33l0,0q-0.33,-0.12 -0.72,-0.12l0,0q-0.71,0 -1.81,0.25q-1.1,0.25 -1.98,0.64q-0.88,0.38 -1.1,0.93l0,0q-2.36,5.99 -5.01,10.12q-2.63,4.13 -5.3,6.68q-2.67,2.56 -5.09,3.72q-2.42,1.15 -4.29,1.15zm1.54,-1.43l0,0q2.04,0 4.01,-1.57q1.98,-1.56 3.83,-4.04q1.84,-2.47 3.35,-5.28q1.51,-2.81 2.61,-5.34q1.11,-2.52 1.65,-4.07l0,0q-4.5,1.49 -8.35,3.96q-3.86,2.48 -6.88,6.22l0,0q-1.65,2.04 -2.39,3.8q-0.75,1.76 -0.75,3.13l0,0q0,1.48 0.8,2.34q0.8,0.85 2.12,0.85zm33.33,-18.32l0,0q-1.54,0 -2.7,-0.71l0,0q-1.92,-1.15 -1.92,-4.18l0,0q0,-1.26 0.44,-2.92l0,0q0.39,-1.37 1.38,-2.99q0.99,-1.62 2.33,-3.11q1.35,-1.48 2.95,-2.42q1.59,-0.93 3.19,-0.93l0,0q0.66,0 1.15,0.16l0,0q0.66,0.22 1.13,0.8q0.47,0.57 0.47,1.46l0,0q0,0.93 -0.47,1.04q-0.47,0.11 -0.47,-0.22l0,0q0,-0.11 0.03,-0.22q0.03,-0.11 0.03,-0.16l0,0q0,-0.44 -0.25,-0.8q-0.25,-0.36 -0.91,-0.36l0,0q-0.88,0 -2.17,0.93q-1.29,0.94 -2.64,2.51q-1.35,1.56 -2.37,3.43q-1.01,1.88 -1.34,3.75l0,0q-0.06,0.27 -0.09,0.52q-0.02,0.24 -0.02,0.52l0,0q0,1.26 0.57,2.12q0.58,0.85 1.85,0.85l0,0q1.54,0 2.97,-1.18q1.43,-1.18 2.55,-2.83q1.13,-1.66 1.68,-2.92l0,0q0.44,-0.99 0.61,-1.7q0.16,-0.72 0.16,-1.22l0,0q0,-0.44 -0.08,-0.77q-0.08,-0.33 -0.19,-0.54l0,0q-0.11,-0.33 -0.11,-0.5l0,0q0,-0.44 0.35,-0.72q0.36,-0.27 0.75,-0.27l0,0q0.33,0 0.71,0.22l0,0q0.44,0.11 1.21,0.16q0.77,0.06 1.65,0.06l0,0q0.94,0 1.9,-0.06q0.96,-0.05 1.68,-0.21l0,0q0.11,-0.06 0.33,-0.06l0,0q0.38,0 0.38,0.22l0,0q0,0.22 -0.38,0.38l0,0q-1.93,0.89 -3.44,0.94q-1.51,0.05 -2.61,0.05l0,0q0.11,1.38 -0.61,2.95q-0.71,1.57 -1.48,2.78l0,0q-0.94,1.37 -2.15,2.8q-1.21,1.43 -2.69,2.39q-1.49,0.96 -3.36,0.96z" id="svg_11" transform="translate(-1.75967, 33.1103)"/>
       </g>
       <!---->
       <!---->
       <!---->
       <!---->
       <!---->
       <!---->
       <!---->
      </g>
     </g>
     <!---->
    </g>
   </g>
  </g>
 </g>
</svg>